<?xml version="1.0" encoding="UTF-8" standalone="no"?>
<!-- Created with Inkscape (http://www.inkscape.org/) -->

<svg
   width="142.1812mm"
   height="56.115475mm"
   viewBox="0 0 142.1812 56.115475"
   version="1.1"
   id="svg1"
   xmlns:inkscape="http://www.inkscape.org/namespaces/inkscape"
   xmlns:sodipodi="http://sodipodi.sourceforge.net/DTD/sodipodi-0.dtd"
   xmlns="http://www.w3.org/2000/svg"
   xmlns:svg="http://www.w3.org/2000/svg">
  <sodipodi:namedview
     id="namedview1"
     pagecolor="#ffffff"
     bordercolor="#000000"
     borderopacity="0.25"
     inkscape:showpageshadow="2"
     inkscape:pageopacity="0.0"
     inkscape:pagecheckerboard="0"
     inkscape:deskcolor="#d1d1d1"
     inkscape:document-units="mm">
    <inkscape:page
       x="0"
       y="0"
       width="142.1812"
       height="56.115475"
       id="page2"
       margin="0"
       bleed="0" />
  </sodipodi:namedview>
  <defs
     id="defs1" />
  <g
     inkscape:label="Layer 1"
     inkscape:groupmode="layer"
     id="layer1"
     transform="translate(60.325,-90.752084)">
    <path
       d="m -15.253831,124.21658 c 1.5875,3.11944 4.1275,4.65667 7.6861461,4.65667 3.8205833,0 5.1831874,-2.02142 5.1831874,-3.99785 0,-1.36261 -0.4841875,-2.28336 -1.7568333,-3.11944 -1.2752917,-0.87842 -2.1960416,-1.27265 -4.4793958,-2.11667 -2.8125204,-1.05833 -4.4370624,-1.85208 -6.1938954,-3.25173 -1.756834,-1.44991 -2.590271,-3.43958 -2.590271,-6.01662 a 7.4824166,7.4824166 0 0 1 2.722562,-5.97429 c 1.852084,-1.53723 4.085167,-2.28336 6.7627502,-2.28336 4.1724792,0 7.33424995,1.66952 9.4429791,4.96359 l -3.9078958,2.69081 c -1.1853333,-1.80181 -2.9871458,-2.72521 -5.4477708,-2.72521 -2.4156457,0 -4.1724787,1.3626 -4.1724787,3.25173 0,1.27264 0.529166,1.88912 1.275291,2.64583 0.481542,0.3519 1.7118544,0.87842 2.2833544,1.18534 l 1.5875,0.61383 1.7991666,0.70379 c 2.9104167,1.18533 4.96358331,2.46063 6.2362291,3.82058 1.2726458,1.35996 1.9341042,3.20675 1.9341042,5.49011 0,5.40279 -3.73327082,9.04875 -10.7182707,9.04875 -5.6647296,0 -9.8372086,-2.64584 -11.7686666,-6.985 z"
       style="fill:#380d09;stroke-width:0.264583"
       id="path1" />
    <path
       d="m 25.37294,114.24708 -3.241146,3.38138 a 7.4453749,7.4453749 0 0 0 -5.61975,-2.41565 6.6145832,6.6145832 0 0 0 -4.876271,1.97644 7.3448332,7.3448332 0 0 0 0,9.92717 6.6145832,6.6145832 0 0 0 4.876271,1.97643 7.4453749,7.4453749 0 0 0 5.61975,-2.41564 l 3.251729,3.38137 c -2.38125,2.54794 -5.315479,3.82059 -8.871479,3.82059 -3.384021,0 -6.238875,-1.09802 -8.5645625,-3.33905 -2.3256874,-2.24102 -3.4713333,-5.05089 -3.4713333,-8.38729 0,-3.33639 1.143,-6.10658 3.4713333,-8.34495 2.3283335,-2.23838 5.1805415,-3.38138 8.5645625,-3.38138 3.545417,0 6.487583,1.27265 8.860896,3.82058 z"
       style="fill:#380d09;stroke-width:0.264583"
       id="path2" />
    <path
       d="m 35.858377,119.77952 c 3.735917,-0.34925 5.058833,-0.83344 5.058833,-2.54529 0,-1.3626 -1.227666,-2.41565 -3.688291,-2.41565 q -3.556,0 -5.929313,2.89719 l -3.249083,-2.76754 c 2.151062,-3.02948 5.180542,-4.52173 9.091083,-4.52173 5.490104,0 8.916458,2.64583 8.916458,7.15698 v 9.78958 c 0,1.53723 0.568855,1.7145 1.852084,1.7145 h 0.132291 v 4.08252 c -0.529166,0.30957 -1.362604,0.48419 -2.460625,0.48419 -1.185333,0 -2.116666,-0.3519 -2.809875,-1.05833 a 3.7200416,3.7200416 0 0 1 -0.79375,-1.44992 c -1.537229,1.79917 -4.040187,2.72256 -7.51152,2.72256 -4.873625,0 -8.167688,-2.68023 -8.167688,-6.72041 -0.01323,-4.51379 3.01625,-6.79715 9.559396,-7.36865 z m -0.613833,9.62554 c 3.513666,0 5.664729,-1.5875 5.664729,-4.39208 v -2.46063 a 2.5796875,2.5796875 0 0 1 -1.095375,0.65882 c -1.010709,0.35189 -1.669521,0.43921 -3.77825,0.65881 -3.074458,0.3519 -4.611688,1.32292 -4.611688,2.85485 0,1.70921 1.404938,2.68023 3.820584,2.68023 z"
       style="fill:#380d09;stroke-width:0.264583"
       id="path3" />
    <path
       d="m 49.341544,102.6504 h 5.270499 v 23.368 c 0,2.15106 0.703792,3.07445 2.645834,3.07445 a 5.5959374,5.5959374 0 0 0 1.5875,-0.17727 v 4.699 a 9.4085832,9.4085832 0 0 1 -2.505604,0.26459 c -4.654021,0 -6.982354,-2.38125 -6.982354,-7.15963 z"
       style="fill:#380d09;stroke-width:0.264583"
       id="path4" />
    <path
       d="m 69.680064,119.77952 c 3.733271,-0.34925 5.050896,-0.83344 5.050896,-2.54529 0,-1.3626 -1.227667,-2.41565 -3.688292,-2.41565 q -3.556,0 -5.929312,2.89719 l -3.249083,-2.76754 c 2.151062,-3.02948 5.180541,-4.52173 9.091083,-4.52173 5.490104,0 8.916458,2.64583 8.916458,7.15698 v 9.78958 c 0,1.53723 0.568854,1.7145 1.852083,1.7145 h 0.132292 v 4.08252 c -0.529167,0.30957 -1.362604,0.48419 -2.460625,0.48419 -1.185333,0 -2.116667,-0.3519 -2.809875,-1.05833 a 3.6882916,3.6882916 0 0 1 -0.79375,-1.44992 c -1.537229,1.79917 -4.040187,2.72256 -7.511521,2.72256 -4.873625,0 -8.167687,-2.68023 -8.167687,-6.72041 -0.0053,-4.51379 3.029479,-6.79715 9.567333,-7.36865 z m -0.613833,9.62554 c 3.513666,0 5.664729,-1.5875 5.664729,-4.39208 v -2.46063 a 2.5743958,2.5743958 0 0 1 -1.098021,0.65882 c -1.008062,0.35189 -1.666875,0.43921 -3.775604,0.65881 -3.074458,0.3519 -4.611688,1.32292 -4.611688,2.85485 0.01323,1.70921 1.404938,2.68023 3.820584,2.68023 z"
       style="fill:#380d09;stroke-width:0.264583"
       id="path5" />
    <path
       d="m -60.272684,111.633 c 0.489479,0.67469 4.616979,1.94733 10.773833,3.2729 6.156854,1.18004 12.559771,5.83935 17.539229,4.40266 3.368146,-0.97366 7.022041,-9.64935 7.022041,-10.93787 v -0.13229 c 0,-0.89959 -0.674687,-1.6219 -1.820333,-2.2225 -4.696354,-2.39977 -5.585354,-3.28348 -7.326312,-2.80459 -9.038167,2.49502 -24.995187,1.21973 -26.188458,8.42169 z"
       style="fill:#380d09;fill-rule:evenodd;stroke-width:0.264583"
       id="path6" />
    <path
       d="m -60.272684,129.24896 c 0.489479,0.68527 4.616979,1.94733 10.773833,3.27554 6.879167,1.25412 12.861396,5.34194 17.8435,3.9026 3.368145,-0.97366 6.71777,-9.14929 6.71777,-10.44045 v -0.127 c 0,-0.89694 -0.674687,-1.6219 -1.820333,-2.21986 -3.582458,-1.905 -8.315854,-4.00314 -10.054166,-3.52425 -9.054042,2.48973 -21.156083,3.03742 -23.460604,9.13342 z"
       style="fill:#380d09;fill-rule:evenodd;stroke-width:0.264583"
       id="path7" />
    <path
       d="m -60.322955,115.41919 v 0.127 0 a 0.98689582,0.98689582 0 0 1 0,-0.127 z"
       style="fill:#555555;fill-rule:evenodd;stroke-width:0.264583"
       id="path8" />
    <path
       d="m -31.66858,94.157271 c -8.323792,2.405063 -21.529146,3.762375 -28.643792,3.762375 v 0 13.586354 a 0.21166666,0.21166666 0 0 0 0.05027,0.127 c 4.855104,0 19.84375,-1.5875 28.887208,-4.07458 a 34.13125,34.13125 0 0 0 4.627562,-1.53723 c 1.105959,-0.49742 1.820334,-1.02129 1.820334,-1.56634 V 90.752084 c -0.01058,1.291166 -3.373438,2.434166 -6.741582,3.405187 z"
       style="fill:#de3423;fill-rule:evenodd;stroke-width:0.264583"
       id="path9" />
    <path
       d="m -31.66858,111.77588 c -4.982105,1.43668 -11.705167,2.5056 -17.830271,3.13002 -4.111625,0.42068 -7.953375,0.64029 -10.813521,0.64029 v 0 13.57577 a 0.21166666,0.21166666 0 0 0 0.05027,0.127 c 4.855104,0 19.84375,-1.5875 28.887208,-4.07194 a 34.496375,34.496375 0 0 0 4.627562,-1.53723 c 1.105959,-0.50006 1.820334,-1.02129 1.820334,-1.56633 v -13.70277 c -0.01058,1.28852 -3.373438,2.43152 -6.741583,3.40519 z"
       style="fill:#de3423;fill-rule:evenodd;stroke-width:0.264583"
       id="path10" />
    <path
       d="m -31.66858,129.40506 c -4.982105,1.43669 -11.705167,2.50296 -17.830271,3.13002 -4.116917,0.42069 -7.963958,0.64029 -10.824104,0.64029 v 13.69219 c 4.804833,0 19.870208,-1.57427 28.937479,-4.07194 3.341687,-0.92075 6.447895,-1.9685 6.447895,-3.1062 v -13.70277 c 0,1.30175 -3.362854,2.43416 -6.730999,3.41841 z"
       style="fill:#de3423;fill-rule:evenodd;stroke-width:0.264583"
       id="path11" />
  </g>
</svg>
